<svg width="30" height="30" viewBox="0 0 30 30" fill="none" xmlns="http://www.w3.org/2000/svg">
<rect width="29.1515" height="29.1515" transform="translate(0.848511)" fill="black"/>
<path d="M12.5006 13.3259C11.8423 13.3259 11.3236 13.9029 11.3236 14.6074C11.3236 15.3094 11.8544 15.8888 12.5006 15.8888C13.1577 15.8888 13.6764 15.3094 13.6764 14.6074C13.6897 13.9017 13.1577 13.3259 12.5006 13.3259ZM16.713 13.3259C16.0547 13.3259 15.536 13.9029 15.536 14.6074C15.536 15.3094 16.0668 15.8888 16.713 15.8888C17.3701 15.8888 17.8888 15.3094 17.8888 14.6074C17.8876 13.9017 17.3701 13.3259 16.713 13.3259Z" fill="white"/>
<path d="M22.321 3.64392H6.85736C6.54599 3.64472 6.23784 3.70683 5.95048 3.82672C5.66312 3.94661 5.40219 4.12193 5.18259 4.34266C4.96299 4.56339 4.78901 4.82521 4.67059 5.11318C4.55218 5.40115 4.49164 5.70962 4.49244 6.02098V21.6219C4.49244 22.9374 5.55404 23.999 6.85736 23.999H19.9427L19.3293 21.8624L20.8076 23.2362L22.2032 24.5286L24.6859 26.7222V6.02098C24.6867 5.70962 24.6262 5.40115 24.5078 5.11318C24.3894 4.82521 24.2154 4.56339 23.9958 4.34266C23.7762 4.12193 23.5153 3.94661 23.2279 3.82672C22.9405 3.70683 22.6324 3.64472 22.321 3.64392ZM17.8657 18.714C17.8657 18.714 17.4503 18.2185 17.1053 17.7775C18.6163 17.35 19.1933 16.405 19.1933 16.405C18.7196 16.7159 18.2702 16.937 17.8657 17.0876C16.3932 17.7039 14.7715 17.8721 13.2039 17.5711C12.6246 17.4573 12.057 17.2906 11.5082 17.0731C11.2188 16.9631 10.9375 16.8328 10.6665 16.6832C10.6313 16.6576 10.5973 16.6479 10.5632 16.6248C10.545 16.6162 10.5289 16.6038 10.5159 16.5884C10.3082 16.4742 10.1928 16.3941 10.1928 16.3941C10.1928 16.3941 10.7467 17.3172 12.2127 17.7557C11.8666 18.193 11.439 18.714 11.439 18.714C8.88946 18.6327 7.92139 16.9601 7.92139 16.9601C7.92139 13.2445 9.58302 10.2334 9.58302 10.2334C11.2447 8.98594 12.8249 9.02116 12.8249 9.02116L12.9403 9.15963C10.8633 9.76088 9.9049 10.6719 9.9049 10.6719C9.9049 10.6719 10.16 10.5334 10.5863 10.3378C11.8204 9.7961 12.8006 9.64549 13.2051 9.61026C13.2743 9.59933 13.3326 9.58719 13.4019 9.58719C15.4026 9.31756 17.4371 9.6978 19.2055 10.6719C19.2055 10.6719 18.2933 9.80704 16.3316 9.207L16.4931 9.02238C16.4931 9.02238 18.0746 8.98715 19.735 10.2346C19.735 10.2346 21.3967 13.2457 21.3967 16.9613C21.3967 16.9601 20.4165 18.6327 17.8657 18.714Z" fill="white"/>
</svg>
