<svg width="29" height="30" viewBox="0 0 29 30" fill="none" xmlns="http://www.w3.org/2000/svg">
<rect width="28.3636" height="29.1515" transform="translate(0.0605469)" fill="black"/>
<path d="M24.2524 2.42925H4.23239C4.00735 2.42603 3.78389 2.46842 3.57479 2.55397C3.36568 2.63953 3.17502 2.76658 3.0137 2.92787C2.85237 3.08917 2.72354 3.28155 2.63456 3.49402C2.54558 3.70649 2.4982 3.9349 2.49512 4.16619V24.9852C2.4982 25.2165 2.54558 25.4449 2.63456 25.6574C2.72354 25.8699 2.85237 26.0623 3.0137 26.2235C3.17502 26.3848 3.36568 26.5119 3.57479 26.5975C3.78389 26.683 4.00735 26.7254 4.23239 26.7222H24.2524C24.4774 26.7254 24.7009 26.683 24.91 26.5975C25.1191 26.5119 25.3098 26.3848 25.4711 26.2235C25.6324 26.0623 25.7612 25.8699 25.8502 25.6574C25.9392 25.4449 25.9866 25.2165 25.9897 24.9852V4.16619C25.9866 3.9349 25.9392 3.70649 25.8502 3.49402C25.7612 3.28155 25.6324 3.08917 25.4711 2.92787C25.3098 2.76658 25.1191 2.63953 24.91 2.55397C24.7009 2.46842 24.4774 2.42603 24.2524 2.42925ZM9.62148 22.7624H6.07603V11.8306H9.62148V22.7624ZM7.84875 10.3002C7.35979 10.3002 6.89085 10.1005 6.54511 9.74517C6.19936 9.38982 6.00512 8.90785 6.00512 8.40531C6.00512 7.90276 6.19936 7.4208 6.54511 7.06545C6.89085 6.71009 7.35979 6.51046 7.84875 6.51046C8.10839 6.4802 8.37133 6.50664 8.62033 6.58806C8.86934 6.66947 9.09881 6.80403 9.29371 6.98291C9.48861 7.16179 9.64456 7.38097 9.75133 7.62609C9.8581 7.87121 9.91329 8.13674 9.91329 8.40531C9.91329 8.67387 9.8581 8.93941 9.75133 9.18453C9.64456 9.42965 9.48861 9.64882 9.29371 9.82771C9.09881 10.0066 8.86934 10.1411 8.62033 10.2226C8.37133 10.304 8.10839 10.3304 7.84875 10.3002ZM22.4088 22.7624H18.8633V16.8957C18.8633 15.426 18.3551 14.4664 17.0669 14.4664C16.6683 14.4694 16.2801 14.5979 15.9546 14.8346C15.6292 15.0714 15.3822 15.4049 15.2469 15.7904C15.1545 16.0759 15.1144 16.3765 15.1288 16.6771V22.7503H11.5833V11.8185H15.1288V13.3611C15.4508 12.7867 15.9193 12.3135 16.4836 11.9924C17.048 11.6714 17.6869 11.5146 18.3315 11.5391C20.6951 11.5391 22.4088 13.106 22.4088 16.4706V22.7624Z" fill="white"/>
</svg>
