<svg width="30" height="30" viewBox="0 0 30 30" fill="none" xmlns="http://www.w3.org/2000/svg">
<rect width="29.1515" height="29.1515" fill="black"/>
<path d="M26.7101 7.95232C26.7 7.4312 26.6582 6.91119 26.585 6.39514C26.4977 5.93613 26.3494 5.49086 26.1441 5.07118C25.6945 4.18364 24.9737 3.46247 24.0865 3.01235C23.6695 2.80794 23.2271 2.66007 22.771 2.57265C22.251 2.49793 21.7269 2.45533 21.2017 2.44511C20.9794 2.43661 20.6915 2.43297 20.5579 2.43297L8.59608 2.42932C8.46247 2.42932 8.1746 2.43297 7.95232 2.44147C7.4312 2.45151 6.91118 2.49329 6.39514 2.56658C5.93613 2.65384 5.49086 2.80212 5.07118 3.00749C4.18369 3.45716 3.46254 4.17788 3.01235 5.0651C2.808 5.48211 2.66013 5.92449 2.57265 6.38057C2.49759 6.90054 2.45459 7.42464 2.4439 7.94989C2.43661 8.17217 2.43175 8.46004 2.43175 8.59365L2.42932 20.5555C2.42932 20.6891 2.43297 20.977 2.44147 21.1993C2.45151 21.7204 2.49329 22.2404 2.56658 22.7564C2.65385 23.2154 2.80214 23.6607 3.00749 24.0804C3.45716 24.9679 4.17788 25.689 5.0651 26.1392C5.48212 26.3435 5.9245 26.4914 6.38057 26.5789C6.90056 26.6537 7.42466 26.6962 7.94989 26.7065C8.17217 26.715 8.46004 26.7186 8.59365 26.7186L20.5555 26.721C20.6891 26.721 20.977 26.7174 21.1993 26.7089C21.7204 26.6988 22.2404 26.657 22.7564 26.5838C23.2154 26.4965 23.6607 26.3482 24.0804 26.1429C24.9683 25.6934 25.6899 24.9727 26.1404 24.0853C26.3448 23.6683 26.4927 23.2259 26.5801 22.7698C26.6552 22.2498 26.6982 21.7257 26.7089 21.2005C26.7162 20.9782 26.721 20.6903 26.721 20.5567L26.7223 8.59608C26.7223 8.46247 26.7186 8.1746 26.7101 7.95232ZM14.8394 23.0261H14.8357C13.3899 23.0258 11.9671 22.6633 10.6974 21.9718L6.10606 23.1755L7.33528 18.6898C6.38355 17.0383 6.00326 15.1189 6.25339 13.2292C6.50352 11.3396 7.37008 9.5852 8.71873 8.23816C10.0674 6.89112 11.8228 6.02664 13.7127 5.77876C15.6027 5.53088 17.5216 5.91345 19.172 6.86715C20.8224 7.82084 22.1121 9.29239 22.841 11.0536C23.57 12.8149 23.6975 14.7674 23.2039 16.6085C22.7102 18.4496 21.623 20.0764 20.1107 21.2367C18.5984 22.397 16.7455 23.026 14.8394 23.0261Z" fill="white"/>
<path d="M14.843 7.1676C13.5568 7.16722 12.294 7.51143 11.1859 8.16444C10.0778 8.81745 9.16485 9.7554 8.54204 10.8808C7.91922 12.0061 7.60927 13.2778 7.64441 14.5635C7.67956 15.8492 8.05851 17.1021 8.74187 18.1917L8.91313 18.4638L8.18556 21.119L10.91 20.4048L11.1724 20.5603C12.2815 21.2171 13.5468 21.5637 14.8357 21.5636H14.8394C16.7486 21.5639 18.5797 20.8058 19.9299 19.456C21.2802 18.1063 22.0389 16.2754 22.0392 14.3662C22.0395 12.457 21.2814 10.6259 19.9316 9.27566C18.5819 7.92544 16.751 7.1667 14.8418 7.16638L14.843 7.1676ZM19.0749 17.4557C18.9157 17.7186 18.7037 17.9457 18.4525 18.1228C18.2012 18.2998 17.916 18.423 17.6149 18.4845C17.1601 18.5624 16.6935 18.5333 16.252 18.3994C15.8333 18.269 15.4218 18.1165 15.0192 17.9427C13.5248 17.1928 12.2511 16.0673 11.323 14.6765C10.8167 14.0327 10.5094 13.2551 10.4387 12.4392C10.4329 12.1024 10.4973 11.768 10.6278 11.4575C10.7583 11.1469 10.952 10.867 11.1967 10.6354C11.269 10.5529 11.3575 10.4863 11.4568 10.4397C11.5561 10.3931 11.664 10.3675 11.7736 10.3645C11.917 10.3645 12.0615 10.3645 12.1878 10.3718C12.3214 10.3779 12.4988 10.3208 12.6737 10.7435C12.8559 11.1759 13.2883 12.2412 13.3417 12.3493C13.376 12.406 13.3957 12.4703 13.3989 12.5365C13.402 12.6026 13.3887 12.6685 13.36 12.7282C13.3055 12.8582 13.2327 12.9797 13.1437 13.089C13.0344 13.2153 12.9166 13.3708 12.8194 13.468C12.7101 13.5761 12.5984 13.6927 12.7235 13.9089C13.0484 14.4653 13.4541 14.9704 13.9272 15.4078C14.4405 15.8642 15.0296 16.2275 15.6678 16.4815C15.884 16.5908 16.0103 16.5714 16.1366 16.4268C16.263 16.2823 16.6772 15.7952 16.8217 15.579C16.9662 15.3628 17.1096 15.3993 17.3076 15.4709C17.5055 15.5426 18.5708 16.0661 18.787 16.1754C19.0032 16.2847 19.1477 16.337 19.2012 16.4268C19.2604 16.7748 19.2165 17.1324 19.0749 17.4557Z" fill="white"/>
</svg>
